<svg width="212" height="212" xmlns="http://www.w3.org/2000/svg" xmlns:xlink="http://www.w3.org/1999/xlink" xml:space="preserve" overflow="hidden"><g><path d="M110.417 152.817 110.417 164.521 101.583 164.521 101.583 152.817C96.5042 151.05 92.75 146.192 92.75 140.229 92.75 132.942 98.7125 126.979 106 126.979 113.287 126.979 119.25 132.942 119.25 140.229 119.25 145.971 115.496 150.829 110.417 152.817ZM72.875 71.7708C72.875 53.4417 87.6708 38.6458 106 38.6458 124.329 38.6458 139.125 53.4417 139.125 71.7708L139.125 96.2833 106 93.8542 72.875 96.2833 72.875 71.7708ZM152.375 97.1667 152.375 71.7708C152.375 46.1542 131.617 25.3958 106 25.3958 80.3833 25.3958 59.625 46.1542 59.625 71.7708L59.625 97.1667 44.1667 98.2708 44.1667 182.188 106 186.604 167.833 182.188 167.833 98.2708 152.375 97.1667Z"/></g></svg>