<?xml version="1.0" standalone="no"?>
<!DOCTYPE svg PUBLIC "-//W3C//DTD SVG 20010904//EN"
 "http://www.w3.org/TR/2001/REC-SVG-20010904/DTD/svg10.dtd">
<svg version="1.0" xmlns="http://www.w3.org/2000/svg"
 width="565.000000pt" height="565.000000pt" viewBox="0 0 565.000000 565.000000"
 preserveAspectRatio="xMidYMid meet">

<g transform="translate(0.000000,565.000000) scale(0.100000,-0.100000)"
fill="#000000" stroke="none">
<path d="M3574 3376 l-34 -34 0 -331 0 -332 56 3 57 3 -2 307 c-1 214 2 308 9
313 17 11 22 1 36 -77 39 -223 86 -467 95 -496 21 -63 107 -82 159 -34 29 26
32 36 83 317 41 226 56 290 67 290 13 0 15 -43 16 -310 l2 -310 56 -3 56 -3 0
332 0 331 -34 34 c-31 31 -40 34 -90 34 -47 0 -61 -4 -87 -28 -30 -27 -33 -37
-69 -228 -21 -109 -43 -233 -50 -274 -7 -41 -15 -69 -18 -61 -2 7 -26 131 -52
274 -46 254 -48 262 -79 289 -26 24 -40 28 -87 28 -50 0 -59 -3 -90 -34z"/>
<path d="M1120 3129 c0 -301 5 -333 57 -385 46 -46 114 -64 240 -64 l103 0 0
44 0 44 -111 4 c-111 3 -111 3 -140 36 l-29 32 0 280 0 280 -60 0 -60 0 0
-271z"/>
<path d="M2627 3378 c-75 -26 -157 -100 -194 -176 -25 -51 -28 -68 -28 -157 0
-82 4 -109 22 -148 38 -83 88 -134 171 -175 73 -35 80 -37 176 -37 l101 0 0
43 0 44 -80 2 c-95 3 -160 31 -218 95 -37 41 -67 119 -67 176 0 96 62 194 152
239 43 21 66 26 130 26 l78 0 0 45 0 45 -92 -1 c-66 0 -110 -7 -151 -21z"/>
<path d="M2130 3051 c0 -262 1 -269 23 -302 32 -49 79 -69 160 -69 l67 0 0 45
0 45 -48 0 c-27 0 -57 7 -70 16 -21 14 -22 22 -22 160 l0 144 70 0 70 0 0 45
0 45 -70 0 -70 0 0 70 0 70 -55 0 -55 0 0 -269z"/>
<path d="M1673 3160 c-235 -118 -163 -455 103 -486 113 -14 242 62 280 163 69
179 -56 353 -252 353 -59 0 -81 -5 -131 -30z m217 -83 c12 -8 32 -30 46 -48
32 -44 34 -135 4 -184 -72 -117 -236 -100 -286 30 -31 82 1 170 78 209 39 20
125 16 158 -7z"/>
<path d="M3090 3169 c-101 -45 -154 -126 -154 -234 0 -105 45 -180 135 -230
47 -26 65 -29 134 -30 70 0 86 4 134 30 118 65 168 192 125 318 -21 63 -86
127 -149 150 -69 24 -168 22 -225 -4z m187 -85 c135 -65 113 -273 -34 -313
-106 -30 -221 82 -198 192 14 63 59 117 110 130 41 10 88 6 122 -9z"/>
</g>
</svg>
